<svg xmlns="http://www.w3.org/2000/svg" width="760" height="394" viewBox="0 0 760 394" role="img" aria-labelledby="t d"><title id="t">Phase 3 against Phase 4</title><desc id="d">Time before and after, per case.</desc><style>svg{--surface:#fcfcfb;--ink:#0b0b0b;--ink2:#52514e;--muted:#898781;--grid:#e1e0d9;--axis:#c3c2b7;--band:#f3f2ee;--band2:#ebeae4;--s1:#2a78d6;--s2:#eb6834;--s3:#1baf7a;--s4:#eda100;--s5:#e87ba4;--s6:#008300;--s7:#4a3aa7;--other:#c3c2b7;}@media (prefers-color-scheme: dark){svg{--surface:#1a1a19;--ink:#ffffff;--ink2:#c3c2b7;--muted:#898781;--grid:#2c2c2a;--axis:#383835;--band:#222221;--band2:#2a2a28;--s1:#3987e5;--s2:#d95926;--s3:#199e70;--s4:#c98500;--s5:#d55181;--s6:#008300;--s7:#9085e9;--other:#52514e;}}text{font-family:system-ui, -apple-system, 'Segoe UI', sans-serif;font-size:12px;fill:var(--ink2)}.h{font-size:15px;font-weight:600;fill:var(--ink)}.sub{fill:var(--muted)}.v{fill:var(--ink);font-variant-numeric:tabular-nums}.m{fill:var(--muted);font-size:11px}</style><rect width="760" height="394" rx="8" fill="var(--surface)"/><text x="20.0" y="30.0" text-anchor="start" class="h">Phase 3 against Phase 4</text><text x="20.0" y="50.0" text-anchor="start" class="sub">Ring: Phase 3. Dot: Phase 4. Same machine, same inputs, log scale</text><rect x="250.0" y="76" width="62.3" height="278" fill="var(--band)"/><rect x="312.3" y="76" width="119.2" height="278" fill="var(--band2)"/><rect x="431.5" y="76" width="138.5" height="278" fill="var(--band)"/><line x1="250.0" y1="76.0" x2="250.0" y2="354.0" stroke="var(--grid)" stroke-width="1" stroke-linecap="round"/><text x="250.0" y="370.0" text-anchor="middle" class="m">0.3 s</text><line x1="312.3" y1="76.0" x2="312.3" y2="354.0" stroke="var(--grid)" stroke-width="1" stroke-linecap="round"/><text x="312.3" y="370.0" text-anchor="middle" class="m">1 s</text><line x1="369.2" y1="76.0" x2="369.2" y2="354.0" stroke="var(--grid)" stroke-width="1" stroke-linecap="round"/><text x="369.2" y="370.0" text-anchor="middle" class="m">3 s</text><line x1="431.5" y1="76.0" x2="431.5" y2="354.0" stroke="var(--grid)" stroke-width="1" stroke-linecap="round"/><text x="431.5" y="370.0" text-anchor="middle" class="m">10 s</text><line x1="488.3" y1="76.0" x2="488.3" y2="354.0" stroke="var(--grid)" stroke-width="1" stroke-linecap="round"/><text x="488.3" y="370.0" text-anchor="middle" class="m">30 s</text><line x1="550.6" y1="76.0" x2="550.6" y2="354.0" stroke="var(--grid)" stroke-width="1" stroke-linecap="round"/><text x="550.6" y="370.0" text-anchor="middle" class="m">100 s</text><text x="20.0" y="99.0" text-anchor="start" class="">Cold start to a loaded engine</text><line x1="372.7" y1="95.0" x2="405.9" y2="95.0" stroke="var(--axis)" stroke-width="2" stroke-linecap="round"/><circle cx="405.9" cy="95.0" r="4.5" fill="var(--surface)" stroke="var(--s2)" stroke-width="2"/><circle cx="372.7" cy="95.0" r="4.5" fill="var(--s1)" stroke="var(--surface)" stroke-width="2"/><text x="580.0" y="99.0" text-anchor="start" class="v">6.1 s → 3.2 s</text><text x="740.0" y="99.0" text-anchor="end" class="m">measured</text><text x="20.0" y="129.0" text-anchor="start" class="">Paste, 2 KB</text><line x1="277.5" y1="125.0" x2="287.6" y2="125.0" stroke="var(--axis)" stroke-width="2" stroke-linecap="round"/><circle cx="287.6" cy="125.0" r="4.5" fill="var(--surface)" stroke="var(--s2)" stroke-width="2"/><circle cx="277.5" cy="125.0" r="4.5" fill="var(--s1)" stroke="var(--surface)" stroke-width="2"/><text x="580.0" y="129.0" text-anchor="start" class="v">0.62 s → 0.51 s</text><text x="740.0" y="129.0" text-anchor="end" class="m">measured</text><text x="20.0" y="159.0" text-anchor="start" class="">Paste, 200 KB</text><line x1="517.3" y1="155.0" x2="533.7" y2="155.0" stroke="var(--axis)" stroke-width="2" stroke-linecap="round"/><circle cx="533.7" cy="155.0" r="4.5" fill="var(--surface)" stroke="var(--s2)" stroke-width="2"/><circle cx="517.3" cy="155.0" r="4.5" fill="var(--s1)" stroke="var(--surface)" stroke-width="2"/><text x="580.0" y="159.0" text-anchor="start" class="v">72 s → 53 s</text><text x="740.0" y="159.0" text-anchor="end" class="m">measured</text><text x="20.0" y="189.0" text-anchor="start" class="">Word, 10 pages</text><line x1="419.0" y1="185.0" x2="429.2" y2="185.0" stroke="var(--axis)" stroke-width="2" stroke-linecap="round"/><circle cx="429.2" cy="185.0" r="4.5" fill="var(--surface)" stroke="var(--s2)" stroke-width="2"/><circle cx="419.0" cy="185.0" r="4.5" fill="var(--s1)" stroke="var(--surface)" stroke-width="2"/><text x="580.0" y="189.0" text-anchor="start" class="v">9.6 s → 7.9 s</text><text x="740.0" y="189.0" text-anchor="end" class="m">measured</text><text x="20.0" y="219.0" text-anchor="start" class="">PDF, 1 digital page</text><line x1="413.2" y1="215.0" x2="440.1" y2="215.0" stroke="var(--axis)" stroke-width="2" stroke-linecap="round"/><circle cx="440.1" cy="215.0" r="4.5" fill="var(--surface)" stroke="var(--s2)" stroke-width="2"/><circle cx="413.2" cy="215.0" r="4.5" fill="var(--s1)" stroke="var(--surface)" stroke-width="2"/><text x="580.0" y="219.0" text-anchor="start" class="v">12 s → 7.0 s</text><text x="740.0" y="219.0" text-anchor="end" class="m">measured</text><text x="20.0" y="249.0" text-anchor="start" class="">PDF, 10 digital pages</text><line x1="532.0" y1="245.0" x2="558.5" y2="245.0" stroke="var(--axis)" stroke-width="2" stroke-linecap="round"/><circle cx="558.5" cy="245.0" r="4.5" fill="var(--surface)" stroke="var(--s2)" stroke-width="2"/><circle cx="532.0" cy="245.0" r="4.5" fill="var(--s1)" stroke="var(--surface)" stroke-width="2"/><text x="580.0" y="249.0" text-anchor="start" class="v">116 s → 70 s</text><text x="740.0" y="249.0" text-anchor="end" class="m">measured</text><text x="20.0" y="279.0" text-anchor="start" class="">Screenshot, 1080p</text><line x1="409.4" y1="275.0" x2="429.0" y2="275.0" stroke="var(--axis)" stroke-width="2" stroke-linecap="round"/><circle cx="429.0" cy="275.0" r="4.5" fill="var(--surface)" stroke="var(--s2)" stroke-width="2"/><circle cx="409.4" cy="275.0" r="4.5" fill="var(--s1)" stroke="var(--surface)" stroke-width="2"/><text x="580.0" y="279.0" text-anchor="start" class="v">9.5 s → 6.5 s</text><text x="740.0" y="279.0" text-anchor="end" class="m">measured</text><text x="20.0" y="309.0" text-anchor="start" class="">Screenshot, 4K</text><line x1="479.0" y1="305.0" x2="500.5" y2="305.0" stroke="var(--axis)" stroke-width="2" stroke-linecap="round"/><circle cx="500.5" cy="305.0" r="4.5" fill="var(--surface)" stroke="var(--s2)" stroke-width="2"/><circle cx="479.0" cy="305.0" r="4.5" fill="var(--s1)" stroke="var(--surface)" stroke-width="2"/><text x="580.0" y="309.0" text-anchor="start" class="v">38 s → 25 s</text><text x="740.0" y="309.0" text-anchor="end" class="m">measured</text><text x="20.0" y="339.0" text-anchor="start" class="">Phone photo, 12 MP</text><line x1="441.5" y1="335.0" x2="453.7" y2="335.0" stroke="var(--axis)" stroke-width="2" stroke-linecap="round"/><circle cx="453.7" cy="335.0" r="4.5" fill="var(--surface)" stroke="var(--s2)" stroke-width="2"/><circle cx="441.5" cy="335.0" r="4.5" fill="var(--s1)" stroke="var(--surface)" stroke-width="2"/><text x="580.0" y="339.0" text-anchor="start" class="v">15 s → 12 s</text><text x="740.0" y="339.0" text-anchor="end" class="m">measured</text></svg>
