<svg xmlns="http://www.w3.org/2000/svg" width="760" height="492" viewBox="0 0 760 492" role="img" aria-labelledby="t d"><title id="t">Peak memory per input</title><desc id="d">Working set of the engine process, model loaded</desc><style>svg{--surface:#fcfcfb;--ink:#0b0b0b;--ink2:#52514e;--muted:#898781;--grid:#e1e0d9;--axis:#c3c2b7;--band:#f3f2ee;--band2:#ebeae4;--s1:#2a78d6;--s2:#eb6834;--s3:#1baf7a;--s4:#eda100;--s5:#e87ba4;--s6:#008300;--s7:#4a3aa7;--other:#c3c2b7;}@media (prefers-color-scheme: dark){svg{--surface:#1a1a19;--ink:#ffffff;--ink2:#c3c2b7;--muted:#898781;--grid:#2c2c2a;--axis:#383835;--band:#222221;--band2:#2a2a28;--s1:#3987e5;--s2:#d95926;--s3:#199e70;--s4:#c98500;--s5:#d55181;--s6:#008300;--s7:#9085e9;--other:#52514e;}}text{font-family:system-ui, -apple-system, 'Segoe UI', sans-serif;font-size:12px;fill:var(--ink2)}.h{font-size:15px;font-weight:600;fill:var(--ink)}.sub{fill:var(--muted)}.v{fill:var(--ink);font-variant-numeric:tabular-nums}.m{fill:var(--muted);font-size:11px}</style><rect width="760" height="492" rx="8" fill="var(--surface)"/><text x="20.0" y="30.0" text-anchor="start" class="h">Peak memory per input</text><text x="20.0" y="50.0" text-anchor="start" class="sub">Working set of the engine process, model loaded</text><text x="20.0" y="96.0" text-anchor="start" class="">Paste, 200 B</text><path d="M238.0,86.0h136.6a4,4 0 0 1 4,4v6.0a4,4 0 0 1 -4,4h-136.6z" fill="var(--s1)"/><text x="384.6" y="97.0" text-anchor="start" class="v">1,208 MB</text><text x="20.0" y="118.0" text-anchor="start" class="">Paste, 2 KB</text><path d="M238.0,108.0h136.6a4,4 0 0 1 4,4v6.0a4,4 0 0 1 -4,4h-136.6z" fill="var(--s1)"/><text x="384.6" y="119.0" text-anchor="start" class="v">1,208 MB</text><text x="20.0" y="140.0" text-anchor="start" class="">Paste, 20 KB</text><path d="M238.0,130.0h136.6a4,4 0 0 1 4,4v6.0a4,4 0 0 1 -4,4h-136.6z" fill="var(--s1)"/><text x="384.6" y="141.0" text-anchor="start" class="v">1,208 MB</text><text x="20.0" y="162.0" text-anchor="start" class="">Paste, 200 KB (a log)</text><path d="M238.0,152.0h202.1a4,4 0 0 1 4,4v6.0a4,4 0 0 1 -4,4h-202.1z" fill="var(--s1)"/><text x="450.1" y="163.0" text-anchor="start" class="v">1,771 MB</text><text x="20.0" y="184.0" text-anchor="start" class="">Word, 1 page</text><path d="M238.0,174.0h136.6a4,4 0 0 1 4,4v6.0a4,4 0 0 1 -4,4h-136.6z" fill="var(--s1)"/><text x="384.6" y="185.0" text-anchor="start" class="v">1,207 MB</text><text x="20.0" y="206.0" text-anchor="start" class="">Word, 10 pages</text><path d="M238.0,196.0h136.6a4,4 0 0 1 4,4v6.0a4,4 0 0 1 -4,4h-136.6z" fill="var(--s1)"/><text x="384.6" y="207.0" text-anchor="start" class="v">1,208 MB</text><text x="20.0" y="228.0" text-anchor="start" class="">Word, 50 pages</text><path d="M238.0,218.0h175.9a4,4 0 0 1 4,4v6.0a4,4 0 0 1 -4,4h-175.9z" fill="var(--s1)"/><text x="423.9" y="229.0" text-anchor="start" class="v">1,545 MB</text><text x="20.0" y="250.0" text-anchor="start" class="">PDF, 1 digital page</text><path d="M238.0,240.0h237.0a4,4 0 0 1 4,4v6.0a4,4 0 0 1 -4,4h-237.0z" fill="var(--s1)"/><text x="485.0" y="251.0" text-anchor="start" class="v">2,070 MB</text><text x="20.0" y="272.0" text-anchor="start" class="">PDF, 1 scanned page</text><path d="M238.0,262.0h239.4a4,4 0 0 1 4,4v6.0a4,4 0 0 1 -4,4h-239.4z" fill="var(--s1)"/><text x="487.4" y="273.0" text-anchor="start" class="v">2,091 MB</text><text x="20.0" y="294.0" text-anchor="start" class="">PDF, 4 digital pages</text><path d="M238.0,284.0h248.5a4,4 0 0 1 4,4v6.0a4,4 0 0 1 -4,4h-248.5z" fill="var(--s1)"/><text x="496.5" y="295.0" text-anchor="start" class="v">2,169 MB</text><text x="20.0" y="316.0" text-anchor="start" class="">PDF, 10 digital pages</text><path d="M238.0,306.0h249.1a4,4 0 0 1 4,4v6.0a4,4 0 0 1 -4,4h-249.1z" fill="var(--s1)"/><text x="497.1" y="317.0" text-anchor="start" class="v">2,174 MB</text><text x="20.0" y="338.0" text-anchor="start" class="">Screenshot, 1280 x 720</text><path d="M238.0,328.0h228.4a4,4 0 0 1 4,4v6.0a4,4 0 0 1 -4,4h-228.4z" fill="var(--s1)"/><text x="476.4" y="339.0" text-anchor="start" class="v">1,997 MB</text><text x="20.0" y="360.0" text-anchor="start" class="">Screenshot, 1920 x 1080</text><path d="M238.0,350.0h234.9a4,4 0 0 1 4,4v6.0a4,4 0 0 1 -4,4h-234.9z" fill="var(--s1)"/><text x="482.9" y="361.0" text-anchor="start" class="v">2,052 MB</text><text x="20.0" y="382.0" text-anchor="start" class="">Screenshot, 2560 x 1440</text><path d="M238.0,372.0h281.2a4,4 0 0 1 4,4v6.0a4,4 0 0 1 -4,4h-281.2z" fill="var(--s1)"/><text x="529.2" y="383.0" text-anchor="start" class="v">2,450 MB</text><text x="20.0" y="404.0" text-anchor="start" class="">Screenshot, 3840 x 2160</text><path d="M238.0,394.0h405.3a4,4 0 0 1 4,4v6.0a4,4 0 0 1 -4,4h-405.3z" fill="var(--s1)"/><text x="653.3" y="405.0" text-anchor="start" class="v">3,516 MB</text><text x="20.0" y="426.0" text-anchor="start" class="">Photo with face and text, 1 MP</text><path d="M238.0,416.0h227.9a4,4 0 0 1 4,4v6.0a4,4 0 0 1 -4,4h-227.9z" fill="var(--s1)"/><text x="475.9" y="427.0" text-anchor="start" class="v">1,992 MB</text><text x="20.0" y="448.0" text-anchor="start" class="">Phone photo, 12 MP</text><path d="M238.0,438.0h398.2a4,4 0 0 1 4,4v6.0a4,4 0 0 1 -4,4h-398.2z" fill="var(--s1)"/><text x="646.2" y="449.0" text-anchor="start" class="v">3,455 MB</text><line x1="238.0" y1="80.0" x2="238.0" y2="458.0" stroke="var(--axis)" stroke-width="1" stroke-linecap="round"/><line x1="347.5" y1="76.0" x2="347.5" y2="458.0" stroke="var(--s2)" stroke-width="2" stroke-linecap="round"/><text x="351.5" y="74.0" text-anchor="start" class="m">engine loaded (941 MB)</text></svg>
