<svg xmlns="http://www.w3.org/2000/svg" width="760" height="310" viewBox="0 0 760 310" role="img" aria-labelledby="t d"><title id="t">How time grows with input size</title><desc id="d">Median seconds against paste size, page count and screenshot megapixels.</desc><style>svg{--surface:#fcfcfb;--ink:#0b0b0b;--ink2:#52514e;--muted:#898781;--grid:#e1e0d9;--axis:#c3c2b7;--band:#f3f2ee;--band2:#ebeae4;--s1:#2a78d6;--s2:#eb6834;--s3:#1baf7a;--s4:#eda100;--s5:#e87ba4;--s6:#008300;--s7:#4a3aa7;--other:#c3c2b7;}@media (prefers-color-scheme: dark){svg{--surface:#1a1a19;--ink:#ffffff;--ink2:#c3c2b7;--muted:#898781;--grid:#2c2c2a;--axis:#383835;--band:#222221;--band2:#2a2a28;--s1:#3987e5;--s2:#d95926;--s3:#199e70;--s4:#c98500;--s5:#d55181;--s6:#008300;--s7:#9085e9;--other:#52514e;}}text{font-family:system-ui, -apple-system, 'Segoe UI', sans-serif;font-size:12px;fill:var(--ink2)}.h{font-size:15px;font-weight:600;fill:var(--ink)}.sub{fill:var(--muted)}.v{fill:var(--ink);font-variant-numeric:tabular-nums}.m{fill:var(--muted);font-size:11px}</style><rect width="760" height="310" rx="8" fill="var(--surface)"/><text x="20.0" y="30.0" text-anchor="start" class="h">How time grows with input size</text><text x="20.0" y="50.0" text-anchor="start" class="sub">Median seconds; every axis starts at zero except paste size</text><text x="48.0" y="72.0" text-anchor="start" class="v" font-weight="600">Paste size</text><line x1="48.0" y1="244.0" x2="248.0" y2="244.0" stroke="var(--axis)" stroke-width="1" stroke-linecap="round"/><text x="44.0" y="248.0" text-anchor="end" class="m">0</text><line x1="48.0" y1="164.0" x2="248.0" y2="164.0" stroke="var(--grid)" stroke-width="1" stroke-linecap="round"/><text x="44.0" y="168.0" text-anchor="end" class="m">50 s</text><line x1="48.0" y1="84.0" x2="248.0" y2="84.0" stroke="var(--grid)" stroke-width="1" stroke-linecap="round"/><text x="44.0" y="88.0" text-anchor="end" class="m">100 s</text><text x="48.0" y="260.0" text-anchor="middle" class="m">0.2</text><text x="114.7" y="260.0" text-anchor="middle" class="m">2</text><text x="181.3" y="260.0" text-anchor="middle" class="m">20</text><text x="248.0" y="260.0" text-anchor="middle" class="m">200</text><text x="248.0" y="274.0" text-anchor="end" class="m">KB (log)</text><path d="M48.0,243.9 L114.7,243.0 L181.3,233.2 L248.0,128.7" fill="none" stroke="var(--s1)" stroke-width="2" stroke-linejoin="round" stroke-linecap="round"/><circle cx="48.0" cy="243.9" r="4.5" fill="var(--s1)" stroke="var(--surface)" stroke-width="2"/><circle cx="114.7" cy="243.0" r="4.5" fill="var(--s1)" stroke="var(--surface)" stroke-width="2"/><circle cx="181.3" cy="233.2" r="4.5" fill="var(--s1)" stroke="var(--surface)" stroke-width="2"/><circle cx="248.0" cy="128.7" r="4.5" fill="var(--s1)" stroke="var(--surface)" stroke-width="2"/><text x="242.0" y="118.7" text-anchor="end" class="v">Paste 72 s</text><text x="298.0" y="72.0" text-anchor="start" class="v" font-weight="600">Pages</text><line x1="298.0" y1="244.0" x2="498.0" y2="244.0" stroke="var(--axis)" stroke-width="1" stroke-linecap="round"/><text x="294.0" y="248.0" text-anchor="end" class="m">0</text><line x1="298.0" y1="190.7" x2="498.0" y2="190.7" stroke="var(--grid)" stroke-width="1" stroke-linecap="round"/><text x="294.0" y="194.7" text-anchor="end" class="m">50 s</text><line x1="298.0" y1="137.3" x2="498.0" y2="137.3" stroke="var(--grid)" stroke-width="1" stroke-linecap="round"/><text x="294.0" y="141.3" text-anchor="end" class="m">100 s</text><line x1="298.0" y1="84.0" x2="498.0" y2="84.0" stroke="var(--grid)" stroke-width="1" stroke-linecap="round"/><text x="294.0" y="88.0" text-anchor="end" class="m">150 s</text><text x="302.0" y="260.0" text-anchor="middle" class="m">1</text><text x="338.0" y="260.0" text-anchor="middle" class="m">10</text><text x="498.0" y="260.0" text-anchor="middle" class="m">50</text><text x="498.0" y="274.0" text-anchor="end" class="m">pages</text><path d="M302.0,243.0 L338.0,233.8 L498.0,189.3" fill="none" stroke="var(--s2)" stroke-width="2" stroke-linejoin="round" stroke-linecap="round"/><circle cx="302.0" cy="243.0" r="4.5" fill="var(--s2)" stroke="var(--surface)" stroke-width="2"/><circle cx="338.0" cy="233.8" r="4.5" fill="var(--s2)" stroke="var(--surface)" stroke-width="2"/><circle cx="498.0" cy="189.3" r="4.5" fill="var(--s2)" stroke="var(--surface)" stroke-width="2"/><text x="492.0" y="179.3" text-anchor="end" class="v">Word 51 s</text><path d="M302.0,231.4 L314.0,194.5 L338.0,119.9" fill="none" stroke="var(--s3)" stroke-width="2" stroke-linejoin="round" stroke-linecap="round"/><circle cx="302.0" cy="231.4" r="4.5" fill="var(--s3)" stroke="var(--surface)" stroke-width="2"/><circle cx="314.0" cy="194.5" r="4.5" fill="var(--s3)" stroke="var(--surface)" stroke-width="2"/><circle cx="338.0" cy="119.9" r="4.5" fill="var(--s3)" stroke="var(--surface)" stroke-width="2"/><text x="332.0" y="109.9" text-anchor="end" class="v">PDF 116 s</text><text x="548.0" y="72.0" text-anchor="start" class="v" font-weight="600">Screenshot size</text><line x1="548.0" y1="244.0" x2="748.0" y2="244.0" stroke="var(--axis)" stroke-width="1" stroke-linecap="round"/><text x="544.0" y="248.0" text-anchor="end" class="m">0</text><line x1="548.0" y1="164.0" x2="748.0" y2="164.0" stroke="var(--grid)" stroke-width="1" stroke-linecap="round"/><text x="544.0" y="168.0" text-anchor="end" class="m">20 s</text><line x1="548.0" y1="84.0" x2="748.0" y2="84.0" stroke="var(--grid)" stroke-width="1" stroke-linecap="round"/><text x="544.0" y="88.0" text-anchor="end" class="m">40 s</text><text x="570.2" y="260.0" text-anchor="middle" class="m">0.9</text><text x="598.0" y="260.0" text-anchor="middle" class="m">2.1</text><text x="636.9" y="260.0" text-anchor="middle" class="m">3.7</text><text x="748.0" y="260.0" text-anchor="middle" class="m">8.3</text><text x="748.0" y="274.0" text-anchor="end" class="m">megapixels</text><path d="M570.2,223.8 L598.0,205.9 L636.9,170.3 L748.0,92.2" fill="none" stroke="var(--s1)" stroke-width="2" stroke-linejoin="round" stroke-linecap="round"/><circle cx="570.2" cy="223.8" r="4.5" fill="var(--s1)" stroke="var(--surface)" stroke-width="2"/><circle cx="598.0" cy="205.9" r="4.5" fill="var(--s1)" stroke="var(--surface)" stroke-width="2"/><circle cx="636.9" cy="170.3" r="4.5" fill="var(--s1)" stroke="var(--surface)" stroke-width="2"/><circle cx="748.0" cy="92.2" r="4.5" fill="var(--s1)" stroke="var(--surface)" stroke-width="2"/><text x="742.0" y="82.2" text-anchor="end" class="v">Screenshot 38 s</text></svg>
